<svg xmlns="http://www.w3.org/2000/svg" width="931" height="216" viewBox="0 0 931 216">
  <path fill="#38393d" fill-rule="evenodd" d="M 254.00 170.00 L 238.00 177.00 L 218.00 181.00 L 209.00 181.00 L 208.00 182.00 L 128.00 181.00 L 127.00 182.00 L 119.00 182.00 L 113.00 184.00 L 108.00 184.00 L 93.00 188.00 L 74.00 197.00 L 59.00 208.00 L 57.00 211.00 L 74.00 204.00 L 87.00 201.00 L 95.00 201.00 L 96.00 200.00 L 128.00 200.00 L 129.00 201.00 L 138.00 201.00 L 139.00 202.00 L 146.00 202.00 L 147.00 203.00 L 154.00 203.00 L 163.00 205.00 L 173.00 205.00 L 174.00 206.00 L 190.00 206.00 L 191.00 205.00 L 200.00 205.00 L 210.00 203.00 L 222.00 199.00 L 234.00 192.00 L 245.00 182.00 Z M 6.00 119.00 L 4.00 121.00 L 4.00 157.00 L 5.00 158.00 L 42.00 158.00 L 43.00 157.00 L 43.00 120.00 L 42.00 119.00 Z M 292.00 90.00 L 284.00 104.00 L 269.00 120.00 L 253.00 131.00 L 240.00 137.00 L 210.00 145.00 L 192.00 146.00 L 191.00 147.00 L 178.00 147.00 L 177.00 148.00 L 138.00 149.00 L 137.00 150.00 L 123.00 151.00 L 110.00 154.00 L 96.00 159.00 L 81.00 167.00 L 73.00 173.00 L 57.00 190.00 L 48.00 206.00 L 60.00 194.00 L 70.00 187.00 L 83.00 180.00 L 103.00 173.00 L 122.00 171.00 L 123.00 170.00 L 204.00 171.00 L 205.00 170.00 L 222.00 169.00 L 240.00 164.00 L 252.00 158.00 L 262.00 151.00 L 275.00 137.00 L 282.00 126.00 L 288.00 111.00 Z M 575.00 83.00 L 609.00 126.00 L 583.00 159.00 L 575.00 171.00 L 601.00 171.00 L 622.00 144.00 L 624.00 145.00 L 644.00 171.00 L 671.00 171.00 L 635.00 126.00 L 669.00 83.00 L 642.00 83.00 L 622.00 109.00 L 603.00 83.00 Z M 510.00 85.00 L 504.00 89.00 L 497.00 96.00 L 490.00 109.00 L 488.00 117.00 L 489.00 138.00 L 491.00 145.00 L 496.00 154.00 L 502.00 161.00 L 509.00 166.00 L 518.00 170.00 L 528.00 172.00 L 548.00 171.00 L 565.00 163.00 L 569.00 159.00 L 561.00 146.00 L 557.00 149.00 L 547.00 153.00 L 542.00 154.00 L 528.00 153.00 L 523.00 151.00 L 515.00 144.00 L 511.00 133.00 L 512.00 132.00 L 574.00 132.00 L 573.00 113.00 L 571.00 106.00 L 566.00 97.00 L 562.00 92.00 L 554.00 86.00 L 540.00 81.00 L 523.00 81.00 Z M 511.00 116.00 L 516.00 105.00 L 522.00 100.00 L 527.00 98.00 L 537.00 98.00 L 544.00 101.00 L 549.00 106.00 L 553.00 115.00 L 552.00 118.00 L 512.00 118.00 Z M 132.00 61.00 L 132.00 101.00 L 170.00 95.00 L 181.00 92.00 L 186.00 92.00 L 194.00 90.00 L 197.00 88.00 L 198.00 84.00 L 197.00 83.00 L 197.00 77.00 L 198.00 76.00 L 197.00 75.00 L 197.00 61.00 L 194.00 59.00 L 175.00 59.00 L 174.00 60.00 L 173.00 59.00 L 151.00 59.00 L 150.00 60.00 L 149.00 59.00 L 135.00 59.00 Z M 825.00 49.00 L 825.00 171.00 L 848.00 171.00 L 848.00 129.00 L 849.00 128.00 L 868.00 128.00 L 898.00 171.00 L 926.00 171.00 L 894.00 127.00 L 896.00 125.00 L 898.00 125.00 L 909.00 119.00 L 915.00 113.00 L 920.00 104.00 L 922.00 96.00 L 922.00 83.00 L 920.00 75.00 L 916.00 67.00 L 905.00 57.00 L 897.00 53.00 L 887.00 50.00 L 880.00 50.00 L 879.00 49.00 Z M 848.00 70.00 L 849.00 69.00 L 874.00 69.00 L 875.00 70.00 L 885.00 71.00 L 889.00 73.00 L 894.00 78.00 L 897.00 85.00 L 897.00 93.00 L 895.00 99.00 L 889.00 105.00 L 878.00 109.00 L 849.00 109.00 L 848.00 108.00 Z M 436.00 49.00 L 352.00 49.00 L 351.00 50.00 L 351.00 171.00 L 375.00 171.00 L 375.00 122.00 L 376.00 121.00 L 431.00 121.00 L 432.00 120.00 L 432.00 101.00 L 376.00 101.00 L 375.00 100.00 L 375.00 71.00 L 376.00 70.00 L 436.00 70.00 Z M 702.00 61.00 L 693.00 69.00 L 685.00 80.00 L 681.00 88.00 L 677.00 104.00 L 677.00 120.00 L 681.00 135.00 L 689.00 149.00 L 702.00 162.00 L 716.00 170.00 L 731.00 174.00 L 757.00 174.00 L 771.00 170.00 L 776.00 167.00 L 793.00 185.00 L 812.00 174.00 L 812.00 172.00 L 795.00 154.00 L 804.00 144.00 L 810.00 131.00 L 812.00 122.00 L 812.00 100.00 L 810.00 92.00 L 804.00 79.00 L 795.00 67.00 L 783.00 58.00 L 773.00 53.00 L 764.00 50.00 L 751.00 49.00 L 750.00 48.00 L 739.00 48.00 L 738.00 49.00 L 730.00 49.00 L 714.00 54.00 Z M 733.00 70.00 L 750.00 69.00 L 761.00 72.00 L 767.00 75.00 L 778.00 85.00 L 782.00 91.00 L 785.00 99.00 L 786.00 109.00 L 787.00 110.00 L 786.00 121.00 L 779.00 136.00 L 777.00 137.00 L 768.00 125.00 L 766.00 124.00 L 750.00 137.00 L 751.00 140.00 L 760.00 150.00 L 759.00 152.00 L 756.00 153.00 L 742.00 154.00 L 726.00 150.00 L 717.00 144.00 L 712.00 139.00 L 705.00 127.00 L 703.00 119.00 L 703.00 103.00 L 707.00 91.00 L 711.00 85.00 L 719.00 77.00 L 725.00 73.00 Z M 454.00 47.00 L 454.00 169.00 L 453.00 170.00 L 454.00 171.00 L 476.00 171.00 L 476.00 47.00 L 475.00 48.00 L 471.00 47.00 L 468.00 48.00 L 463.00 47.00 L 459.00 48.00 L 458.00 47.00 L 457.00 48.00 Z M 288.00 42.00 L 279.00 59.00 L 259.00 80.00 L 244.00 90.00 L 232.00 96.00 L 213.00 103.00 L 197.00 107.00 L 170.00 111.00 L 169.00 112.00 L 131.00 116.00 L 121.00 119.00 L 117.00 119.00 L 101.00 124.00 L 83.00 133.00 L 72.00 141.00 L 62.00 151.00 L 52.00 164.00 L 43.00 182.00 L 38.00 203.00 L 46.00 188.00 L 54.00 177.00 L 72.00 160.00 L 90.00 149.00 L 109.00 142.00 L 133.00 137.00 L 192.00 132.00 L 193.00 131.00 L 211.00 129.00 L 236.00 121.00 L 252.00 112.00 L 266.00 100.00 L 277.00 85.00 L 283.00 72.00 L 283.00 69.00 L 286.00 62.00 Z M 191.00 5.00 L 191.00 40.00 L 230.00 40.00 L 231.00 39.00 L 231.00 7.00 L 229.00 4.00 L 192.00 4.00 Z M 131.00 5.00 L 130.00 7.00 L 130.00 38.00 L 132.00 40.00 L 167.00 40.00 L 167.00 6.00 L 165.00 4.00 L 133.00 4.00 Z M 6.00 9.00 L 4.00 14.00 L 4.00 92.00 L 10.00 100.00 L 12.00 101.00 L 99.00 101.00 L 105.00 97.00 L 107.00 93.00 L 107.00 12.00 L 101.00 5.00 L 98.00 4.00 L 14.00 4.00 L 9.00 6.00 Z M 28.00 26.00 L 29.00 25.00 L 84.00 25.00 L 85.00 26.00 L 85.00 79.00 L 84.00 80.00 L 29.00 80.00 L 28.00 79.00 Z"/>
</svg>